<svg width="50" height="50" viewBox="0 0 50 50" fill="none" xmlns="http://www.w3.org/2000/svg">
<path d="M42.875 11.5157C42.4387 10.6455 41.8123 9.92187 41.0579 9.41681C40.3036 8.91176 39.4476 8.64283 38.575 8.63677H32.5V2.87892C32.5 2.11539 32.2366 1.38312 31.7678 0.843218C31.2989 0.303315 30.663 0 30 0H5C3.67392 0 2.40215 0.606628 1.46447 1.68643C0.526784 2.76624 0 4.23077 0 5.75785V34.5471C0.000899355 35.5568 0.232357 36.5485 0.671154 37.4227C1.10995 38.2968 1.74066 39.0228 2.5 39.5276C2.41049 42.2 3.24652 44.8039 4.82417 46.7664C6.40182 48.729 8.59186 49.8894 10.9125 49.9925C13.2331 50.0956 15.4943 49.1328 17.1985 47.3161C18.9028 45.4993 19.9105 42.9773 20 40.3049H27.75C28.0265 42.7137 29.0536 44.9247 30.6403 46.5263C32.227 48.1279 34.2651 49.0109 36.375 49.0109C38.4849 49.0109 40.523 48.1279 42.1097 46.5263C43.6964 44.9247 44.7235 42.7137 45 40.3049C46.3261 40.3049 47.5979 39.6983 48.5355 38.6185C49.4732 37.5387 50 36.0742 50 34.5471V25.9103C49.9961 25.3851 49.8756 24.8698 49.65 24.4133L42.875 11.5157ZM32.5 14.3946H38.575L43.075 23.0314H32.5V14.3946ZM11.25 43.1838C10.5083 43.1838 9.7833 42.9306 9.16661 42.4561C8.54993 41.9816 8.06928 41.3071 7.78545 40.518C7.50162 39.729 7.42736 38.8607 7.57205 38.023C7.71675 37.1853 8.0739 36.4158 8.59835 35.8119C9.1228 35.208 9.79098 34.7967 10.5184 34.6301C11.2458 34.4634 11.9998 34.549 12.6851 34.8758C13.3703 35.2026 13.956 35.7561 14.368 36.4663C14.7801 37.1765 15 38.0114 15 38.8655C15 40.0108 14.6049 41.1092 13.9017 41.919C13.1984 42.7289 12.2446 43.1838 11.25 43.1838ZM36.25 43.1838C35.5083 43.1838 34.7833 42.9306 34.1666 42.4561C33.5499 41.9816 33.0693 41.3071 32.7854 40.518C32.5016 39.729 32.4274 38.8607 32.5721 38.023C32.7168 37.1853 33.0739 36.4158 33.5984 35.8119C34.1228 35.208 34.791 34.7967 35.5184 34.6301C36.2458 34.4634 36.9998 34.549 37.6851 34.8758C38.3703 35.2026 38.956 35.7561 39.368 36.4663C39.7801 37.1765 40 38.0114 40 38.8655C40 40.0108 39.6049 41.1092 38.9016 41.919C38.1984 42.7289 37.2446 43.1838 36.25 43.1838Z" fill="#1F5C4C"/>
</svg>
