<svg width="50" height="50" viewBox="0 0 50 50" fill="none" xmlns="http://www.w3.org/2000/svg">
<rect width="50" height="50"/>
<path d="M20.8334 37.5C24.5313 37.4992 28.1226 36.2613 31.0355 33.9833L40.1938 43.1417L43.1397 40.1958L33.9813 31.0375C36.2605 28.1243 37.4992 24.5322 37.5001 20.8333C37.5001 11.6438 30.023 4.16667 20.8334 4.16667C11.6438 4.16667 4.16675 11.6438 4.16675 20.8333C4.16675 30.0229 11.6438 37.5 20.8334 37.5ZM20.8334 8.33333C27.7272 8.33333 33.3334 13.9396 33.3334 20.8333C33.3334 27.7271 27.7272 33.3333 20.8334 33.3333C13.9397 33.3333 8.33342 27.7271 8.33342 20.8333C8.33342 13.9396 13.9397 8.33333 20.8334 8.33333Z" fill="#000"/>
</svg>
