<svg width="50" height="50" viewBox="0 0 50 50" fill="none" xmlns="http://www.w3.org/2000/svg">
<rect width="50" height="50" fill="inherit"/>
<path d="M45.4626 15.4812C45.271 15.2043 45.0151 14.978 44.7168 14.8216C44.4186 14.6652 44.0868 14.5834 43.7501 14.5833H15.2772L12.873 8.81249C12.5578 8.05254 12.024 7.4033 11.3393 6.9471C10.6546 6.4909 9.8499 6.24827 9.02716 6.24999H4.16675V10.4167H9.02716L18.9105 34.1354C19.0688 34.5149 19.3359 34.8391 19.678 35.0671C20.0202 35.2951 20.4222 35.4167 20.8334 35.4167H37.5001C38.3688 35.4167 39.1459 34.8771 39.4522 34.0667L45.7022 17.4C45.8203 17.0846 45.8602 16.7453 45.8185 16.4111C45.7767 16.077 45.6546 15.7579 45.4626 15.4812ZM36.0563 31.25H22.223L17.0147 18.75H40.7438L36.0563 31.25Z" fill="#AAA"/>
<path d="M21.875 43.75C23.6009 43.75 25 42.3509 25 40.625C25 38.8991 23.6009 37.5 21.875 37.5C20.1491 37.5 18.75 38.8991 18.75 40.625C18.75 42.3509 20.1491 43.75 21.875 43.75Z" fill="#AAA"/>
<path d="M36.4583 43.75C38.1841 43.75 39.5833 42.3509 39.5833 40.625C39.5833 38.8991 38.1841 37.5 36.4583 37.5C34.7324 37.5 33.3333 38.8991 33.3333 40.625C33.3333 42.3509 34.7324 43.75 36.4583 43.75Z" fill="#AAA"/>
</svg>
