<svg width="50" height="50" viewBox="0 0 50 50" fill="none" xmlns="http://www.w3.org/2000/svg">
<path d="M24.9978 15.3687C22.4429 15.3687 19.9926 16.3837 18.186 18.1903C16.3794 19.9969 15.3645 22.4472 15.3645 25.0021C15.3645 27.557 16.3794 30.0073 18.186 31.8139C19.9926 33.6205 22.4429 34.6354 24.9978 34.6354C27.5528 34.6354 30.003 33.6205 31.8096 31.8139C33.6162 30.0073 34.6312 27.557 34.6312 25.0021C34.6312 22.4472 33.6162 19.9969 31.8096 18.1903C30.003 16.3837 27.5528 15.3687 24.9978 15.3687ZM24.9978 31.2583C23.338 31.2583 21.7462 30.599 20.5725 29.4253C19.3989 28.2516 18.7395 26.6598 18.7395 25C18.7395 23.3402 19.3989 21.7484 20.5725 20.5747C21.7462 19.401 23.338 18.7417 24.9978 18.7417C26.6576 18.7417 28.2495 19.401 29.4231 20.5747C30.5968 21.7484 31.2562 23.3402 31.2562 25C31.2562 26.6598 30.5968 28.2516 29.4231 29.4253C28.2495 30.599 26.6576 31.2583 24.9978 31.2583Z" fill="#FFF"/>
<path d="M35.0124 17.2604C36.2528 17.2604 37.2583 16.2549 37.2583 15.0146C37.2583 13.7742 36.2528 12.7688 35.0124 12.7688C33.7721 12.7688 32.7666 13.7742 32.7666 15.0146C32.7666 16.2549 33.7721 17.2604 35.0124 17.2604Z" fill="#FFF"/>
<path d="M42.7771 12.7313C42.2948 11.4858 41.5578 10.3548 40.6132 9.41054C39.6686 8.46632 38.5373 7.72973 37.2917 7.24792C35.834 6.70074 34.2941 6.40488 32.7375 6.37292C30.7312 6.28542 30.0958 6.26042 25.0083 6.26042C19.9208 6.26042 19.2687 6.26042 17.2792 6.37292C15.7237 6.40324 14.1849 6.69917 12.7292 7.24792C11.4832 7.72917 10.3516 8.46556 9.40693 9.40985C8.46228 10.3541 7.72546 11.4855 7.24373 12.7313C6.69645 14.1888 6.40126 15.7288 6.37082 17.2854C6.28123 19.2896 6.25415 19.925 6.25415 25.0146C6.25415 30.1021 6.25415 30.75 6.37082 32.7438C6.40207 34.3021 6.69582 35.8396 7.24373 37.3C7.72681 38.5453 8.46435 39.6762 9.40923 40.6204C10.3541 41.5645 11.4855 42.3012 12.7312 42.7833C14.1842 43.3525 15.7237 43.6695 17.2833 43.7208C19.2896 43.8083 19.925 43.8354 25.0125 43.8354C30.1 43.8354 30.7521 43.8354 32.7417 43.7208C34.2981 43.6892 35.838 43.394 37.2958 42.8479C38.5411 42.365 39.6721 41.6278 40.6166 40.6833C41.5611 39.7388 42.2983 38.6078 42.7812 37.3625C43.3292 35.9042 43.6229 34.3667 43.6542 32.8083C43.7437 30.8042 43.7708 30.1688 43.7708 25.0792C43.7708 19.9896 43.7708 19.3438 43.6542 17.35C43.6299 15.7714 43.3332 14.2089 42.7771 12.7313ZM40.2396 32.5896C40.2261 33.7902 40.007 34.9797 39.5917 36.1063C39.2788 36.9164 38.7998 37.6521 38.1856 38.266C37.5713 38.8799 36.8353 39.3584 36.025 39.6708C34.9109 40.0843 33.7341 40.3034 32.5458 40.3188C30.5667 40.4104 30.0083 40.4333 24.9333 40.4333C19.8542 40.4333 19.3354 40.4333 17.3187 40.3188C16.1311 40.3042 14.9548 40.085 13.8417 39.6708C13.0285 39.3604 12.2896 38.8827 11.6727 38.2687C11.0558 37.6546 10.5746 36.9179 10.2604 36.1063C9.85091 34.9918 9.63188 33.8163 9.61248 32.6292C9.5229 30.65 9.50207 30.0917 9.50207 25.0167C9.50207 19.9396 9.50207 19.4208 9.61248 17.4021C9.62595 16.2021 9.8451 15.0134 10.2604 13.8875C10.8958 12.2438 12.1979 10.95 13.8417 10.3208C14.9554 9.90863 16.1313 9.68951 17.3187 9.67292C19.3 9.58333 19.8562 9.55833 24.9333 9.55833C30.0104 9.55833 30.5312 9.55833 32.5458 9.67292C33.7342 9.68721 34.9111 9.9064 36.025 10.3208C36.8353 10.6339 37.5711 11.1129 38.1853 11.7271C38.7996 12.3414 39.2786 13.0772 39.5917 13.8875C40.0011 15.002 40.2202 16.1774 40.2396 17.3646C40.3292 19.3458 40.3521 19.9021 40.3521 24.9792C40.3521 30.0542 40.3521 30.6 40.2625 32.5917H40.2396V32.5896Z" fill="#FFF"/>
</svg>
