<svg width="50" height="50" viewBox="0 0 50 50" fill="none" xmlns="http://www.w3.org/2000/svg">
<rect width="50" height="50" fill="inherit"/>
<path d="M25 4.16666C22.9398 4.16666 20.9258 4.77759 19.2128 5.92219C17.4998 7.06679 16.1647 8.69365 15.3763 10.597C14.5878 12.5004 14.3816 14.5949 14.7835 16.6155C15.1854 18.6362 16.1775 20.4922 17.6343 21.949C19.0911 23.4058 20.9472 24.3979 22.9678 24.7998C24.9884 25.2018 27.0829 24.9955 28.9863 24.2071C30.8897 23.4187 32.5165 22.0835 33.6611 20.3705C34.8057 18.6575 35.4167 16.6436 35.4167 14.5833C35.4167 11.8207 34.3192 9.17114 32.3657 7.21764C30.4122 5.26413 27.7627 4.16666 25 4.16666ZM25 20.8333C23.7639 20.8333 22.5555 20.4668 21.5277 19.78C20.4999 19.0933 19.6988 18.1171 19.2258 16.9751C18.7527 15.8331 18.6289 14.5764 18.8701 13.364C19.1112 12.1516 19.7065 11.038 20.5806 10.1639C21.4547 9.28983 22.5683 8.69458 23.7807 8.45342C24.9931 8.21227 26.2497 8.33604 27.3918 8.80908C28.5338 9.28213 29.5099 10.0832 30.1967 11.111C30.8834 12.1388 31.25 13.3472 31.25 14.5833C31.25 16.2409 30.5915 17.8306 29.4194 19.0027C28.2473 20.1749 26.6576 20.8333 25 20.8333ZM43.75 43.75V41.6667C43.75 37.7989 42.2135 34.0896 39.4786 31.3547C36.7437 28.6198 33.0344 27.0833 29.1667 27.0833H20.8333C16.9656 27.0833 13.2563 28.6198 10.5214 31.3547C7.78645 34.0896 6.25 37.7989 6.25 41.6667V43.75H10.4167V41.6667C10.4167 38.904 11.5141 36.2545 13.4676 34.301C15.4211 32.3475 18.0707 31.25 20.8333 31.25H29.1667C31.9293 31.25 34.5789 32.3475 36.5324 34.301C38.4859 36.2545 39.5833 38.904 39.5833 41.6667V43.75H43.75Z" fill="#AAA"/>
</svg>
